<svg width="44" height="44" viewBox="0 0 44 44" fill="none" xmlns="http://www.w3.org/2000/svg">
<path d="M34.5446 9.76532L38.1873 9.6499V22.5772H33.793L34.5446 9.76532Z" fill="white"/>
<ellipse cx="23.3268" cy="32.0417" rx="4.33653" ry="5.54027" fill="white"/>
<path d="M15.3707 13.9782C15.3707 17.038 13.2557 16.5175 10.8607 16.5175C8.4657 16.5175 6.87109 15.7096 6.87109 14.613C6.87109 11.5532 8.63916 11.1504 11.0342 11.1504C13.4292 11.1504 15.3707 10.9184 15.3707 13.9782Z" fill="white"/>
<path d="M4.71675 4.0369C4.50332 4.1562 4.22158 4.41184 4.07644 4.60783L3.82031 4.97425V9.54173V14.1177L4.04229 14.6887C4.84482 16.7423 6.5694 18.1057 8.64402 18.3188L9.19897 18.3784L9.24165 28.6893L9.28434 39.0002L9.47217 39.307C9.58315 39.4774 9.83074 39.7246 10.0271 39.8609C10.343 40.0825 10.454 40.108 11.0345 40.108C11.6066 40.108 11.7261 40.0825 12.0249 39.878C12.2042 39.7501 12.4518 39.503 12.5713 39.3241L12.7847 39.0088L12.8274 28.6979L12.8701 18.3784L13.425 18.3188C15.5509 18.1057 17.4121 16.5804 18.0609 14.5438C18.2488 13.9558 18.2488 13.8621 18.2488 9.46504V4.98277L18.0182 4.65044C17.6426 4.12211 17.2499 3.90055 16.5925 3.86647C15.8924 3.83238 15.3887 4.06246 15.0045 4.60783L14.7484 4.97425L14.7057 7.11312L14.663 9.26052H13.7666H12.8701L12.8274 7.12165C12.7847 5.01686 12.7847 4.98277 12.5713 4.676C12.2127 4.13915 11.7773 3.90055 11.1284 3.86647C10.4284 3.83238 9.92466 4.06246 9.54047 4.60783L9.28434 4.97425L9.24165 7.11312L9.19897 9.26052H8.30252H7.40608L7.36339 7.12165L7.32071 4.98277L7.09019 4.65044C6.71454 4.12211 6.32181 3.90055 5.66442 3.86647C5.19486 3.8409 5.03264 3.87499 4.71675 4.0369ZM14.6203 13.1378C14.6203 13.6576 14.202 14.2285 13.5958 14.5523C13.3226 14.6972 13.0835 14.7142 11.0345 14.7142C8.88308 14.7142 8.75501 14.7057 8.43059 14.5268C7.85003 14.22 7.44877 13.649 7.44877 13.1378V12.8821H11.0345H14.6203V13.1378Z" fill="#FF7020"/>
<path d="M22.4144 4.0369C22.201 4.1562 21.9193 4.41184 21.7741 4.60783L21.518 4.97426L21.4753 14.4756L21.4326 23.977L20.7155 24.19C18.9226 24.7013 17.5822 25.775 16.8309 27.2833C16.1735 28.6212 16.0625 29.1751 16.0625 31.1179C16.0625 32.541 16.0881 32.8819 16.2418 33.5039C17.0785 36.8017 18.9311 39.0514 21.518 39.912C22.0217 40.0739 22.2949 40.108 23.2682 40.108C24.2415 40.108 24.5147 40.0739 25.0184 39.912C27.6053 39.0514 29.4579 36.8017 30.2946 33.5039C30.4483 32.8819 30.4739 32.541 30.4739 31.1179C30.4739 29.6863 30.4483 29.3625 30.2861 28.7746C29.6457 26.4141 28.1175 24.8462 25.8209 24.19L25.1038 23.977L25.0611 14.4841L25.0184 4.98278L24.7879 4.65044C24.4122 4.12212 24.0195 3.90056 23.3621 3.86647C22.8925 3.84091 22.7303 3.875 22.4144 4.0369ZM24.9501 27.7094C25.9063 28.0332 26.5295 28.7746 26.7686 29.8483C26.9308 30.5896 26.8369 32.4473 26.5978 33.2057C26.1539 34.6032 25.3087 35.7792 24.3951 36.2393C23.8231 36.529 22.7218 36.5376 22.1583 36.2478C21.185 35.7451 20.3996 34.6543 19.9215 33.1631C19.7507 32.6007 19.7251 32.3535 19.7251 31.1179C19.7251 29.746 19.7336 29.7034 19.9727 29.1751C20.3996 28.2548 21.2704 27.6583 22.4144 27.5049C22.4144 27.5049 24.4208 27.539 24.9501 27.7094Z" fill="#FF7020"/>
<path d="M38.8764 4.00281C37.7836 4.57375 36.0932 6.12464 35.0516 7.49659C32.4562 10.9478 30.945 15.822 30.595 21.9148C30.4669 24.1474 30.5267 24.4798 31.1158 25.0677C31.6878 25.6387 31.8415 25.6642 35.0858 25.6642H37.869V32.2513V38.8469L38.0654 39.2048C38.1678 39.4093 38.4239 39.6905 38.6288 39.8439C38.9618 40.0825 39.0472 40.108 39.6533 40.108C40.2339 40.108 40.3534 40.0825 40.6522 39.878C40.8315 39.7501 41.0791 39.503 41.1986 39.3241L41.4121 39.0088V22V4.98277L41.1816 4.65044C40.8059 4.11359 40.4132 3.90055 39.7558 3.86647C39.3289 3.84943 39.1155 3.87499 38.8764 4.00281ZM37.869 15.9498V22H36.059H34.2576L34.3174 21.1223C34.471 18.7789 35.0431 15.9498 35.7858 13.8621C36.281 12.4816 37.6129 9.89963 37.8263 9.89963C37.8519 9.89963 37.869 12.618 37.869 15.9498Z" fill="#FF7020"/>
</svg>
